<?xml version="1.0" standalone="no"?>
<!DOCTYPE svg PUBLIC "-//W3C//DTD SVG 20010904//EN"
 "http://www.w3.org/TR/2001/REC-SVG-20010904/DTD/svg10.dtd">
<svg version="1.0" xmlns="http://www.w3.org/2000/svg"
 width="279.000000pt" height="279.000000pt" viewBox="0 0 279.000000 279.000000"
 preserveAspectRatio="xMidYMid meet">
<metadata>
Created by potrace 1.11, written by Peter Selinger 2001-2013
</metadata>
<g transform="translate(0.000000,279.000000) scale(0.100000,-0.100000)"
fill="#000000" stroke="none">
<path d="M1405 2531 c-28 -14 -62 -37 -76 -51 -17 -17 -35 -25 -55 -24 -16 1
-35 -3 -41 -9 -7 -5 -13 -6 -13 -2 0 4 -7 2 -15 -5 -8 -6 -19 -9 -25 -5 -5 3
-10 1 -10 -6 0 -7 -3 -10 -6 -7 -3 3 -17 -5 -31 -18 -15 -14 -33 -22 -40 -20
-7 3 -12 2 -11 -2 1 -4 -2 -15 -7 -25 -6 -14 -10 -15 -21 -6 -11 9 -14 8 -14
-5 0 -15 -28 -54 -31 -44 -7 21 -3 89 7 109 11 21 10 27 -4 36 -20 12 -131 12
-149 0 -8 -5 -13 -3 -14 5 0 7 -5 3 -11 -10 -6 -12 -16 -22 -22 -21 -27 3 -47
-2 -41 -10 3 -6 -3 -15 -14 -20 -14 -8 -20 -7 -25 4 -3 8 -11 14 -18 13 -7 -2
-12 2 -11 9 2 6 -6 15 -17 18 -11 4 -20 11 -20 16 0 5 -10 7 -22 5 -13 -3 -26
-5 -30 -5 -5 -1 -8 -8 -8 -16 0 -8 -9 -15 -19 -15 -10 0 -21 -6 -24 -14 -3 -8
-16 -16 -29 -18 -16 -2 -24 -11 -26 -28 -2 -14 -11 -31 -20 -37 -9 -7 -12 -13
-8 -13 5 0 3 -7 -4 -15 -6 -8 -9 -19 -5 -25 3 -5 1 -10 -5 -10 -6 0 -9 -4 -6
-9 4 -5 3 -17 -1 -27 -6 -16 -7 -16 -14 2 -4 11 -6 -4 -5 -35 1 -49 -2 -56
-23 -67 -20 -10 -28 -10 -44 1 -14 10 -25 11 -42 3 -19 -9 -23 -18 -23 -59 -1
-27 -3 -53 -7 -58 -3 -5 -1 -12 5 -16 6 -4 8 -11 4 -16 -3 -5 1 -21 10 -34 9
-13 16 -38 16 -55 0 -26 4 -30 26 -30 21 0 25 -4 20 -17 -4 -10 -4 -14 0 -10
4 4 13 2 21 -4 7 -6 13 -8 13 -4 0 4 6 2 14 -5 17 -13 10 -40 -10 -40 -18 0
-19 -49 -1 -51 6 -1 21 -2 32 -3 18 -1 20 -8 19 -83 0 -60 3 -83 12 -83 13 0
20 -15 28 -63 3 -15 12 -34 20 -43 9 -8 16 -20 16 -25 0 -6 4 -8 9 -4 5 3 12
-4 16 -15 3 -11 9 -19 13 -19 19 3 32 -2 32 -13 0 -8 17 -14 43 -16 23 -1 47
-9 53 -17 6 -8 14 -12 17 -9 3 3 15 1 26 -6 12 -6 21 -7 21 -3 0 4 36 6 81 3
44 -3 83 -1 86 3 8 14 34 -15 28 -31 -3 -9 0 -19 7 -24 9 -5 10 -11 3 -15 -6
-5 -11 -21 -13 -38 -1 -16 -3 -41 -5 -55 -2 -14 2 -40 10 -58 10 -25 11 -32 1
-32 -7 0 -3 -8 10 -18 20 -16 21 -19 8 -37 -15 -20 -15 -20 -30 0 -10 15 -11
22 -3 27 8 5 7 8 -4 8 -16 0 -33 55 -20 63 3 2 1 2 -6 1 -17 -4 -31 17 -28 44
2 22 -6 26 -34 22 -8 -1 -21 6 -28 15 -6 10 -19 15 -27 12 -9 -4 -18 -3 -20 2
-3 4 -22 6 -43 5 -21 -1 -48 -2 -60 -3 -13 -1 -32 -10 -43 -21 -11 -11 -25
-20 -30 -20 -5 0 -10 -6 -10 -13 0 -12 -52 -37 -73 -36 -5 0 -17 -9 -26 -20
-10 -11 -21 -18 -25 -14 -3 3 -6 0 -6 -8 0 -8 -8 -22 -18 -30 -15 -13 -18 -30
-17 -101 0 -56 6 -93 16 -109 8 -13 14 -45 14 -71 -1 -27 3 -48 8 -48 5 0 7
-7 3 -15 -3 -9 0 -15 9 -15 8 0 15 -7 15 -15 0 -8 3 -14 8 -14 20 3 32 -3 32
-17 0 -8 4 -13 9 -10 5 4 11 2 13 -4 1 -5 18 -10 35 -12 18 -1 33 -5 33 -9 0
-4 9 -5 21 -2 12 3 25 0 29 -7 4 -7 16 -9 27 -6 15 5 20 16 21 43 2 41 6 48
33 49 36 3 39 4 39 19 0 25 17 17 28 -12 6 -18 6 -36 -1 -51 -8 -17 -6 -26 8
-42 10 -11 22 -17 26 -14 5 3 9 0 9 -6 0 -6 5 -8 12 -4 6 4 32 9 57 10 25 1
50 3 55 3 4 1 6 7 3 15 -4 9 3 16 17 20 26 6 59 64 59 103 0 21 9 27 44 26 6
0 9 5 7 12 -3 7 4 15 15 18 12 3 21 1 21 -5 0 -5 9 -6 20 -3 14 4 20 2 20 -9
0 -10 9 -14 28 -14 35 1 74 -11 67 -22 -3 -4 2 -10 10 -14 8 -3 17 -1 20 4 3
5 12 7 20 3 18 -6 20 -44 3 -41 -7 2 -13 -14 -15 -42 -3 -26 -11 -50 -21 -57
-14 -12 -14 -13 1 -13 16 0 21 -10 18 -36 -1 -7 8 -14 19 -17 23 -6 17 -37 -7
-37 -8 0 -11 -5 -8 -10 3 -6 -4 -14 -16 -18 -20 -8 -22 -15 -21 -70 0 -34 -3
-62 -8 -62 -5 0 -4 -14 1 -32 5 -18 9 -52 9 -75 0 -24 3 -43 8 -44 4 0 16 -3
27 -5 44 -10 95 -11 95 -2 0 6 6 8 14 5 8 -3 17 1 20 9 10 26 32 15 34 -18 2
-18 5 -34 7 -36 8 -9 56 9 50 18 -3 6 6 10 22 11 45 1 64 6 84 25 10 9 19 14
19 10 0 -4 9 2 21 13 12 11 18 24 14 30 -3 6 -1 11 4 11 6 0 11 5 11 11 0 7 8
17 17 24 24 18 18 92 -12 149 -15 28 -20 46 -13 46 7 0 3 7 -8 15 -16 13 -17
16 -4 25 8 5 30 10 48 10 25 0 35 5 39 20 3 11 9 17 14 15 4 -3 13 4 19 16 7
11 14 18 17 15 3 -3 18 3 33 14 16 11 40 20 54 20 16 0 26 6 26 15 0 10 10 15
31 15 21 0 32 6 35 18 4 13 17 18 52 19 26 1 48 7 50 13 5 15 61 42 72 35 15
-9 23 41 10 65 -6 12 -13 31 -16 43 -2 12 -8 23 -13 25 -6 2 -7 10 -4 18 3 8
0 14 -6 14 -6 0 -11 5 -11 10 0 6 7 10 15 10 9 0 19 9 23 19 4 11 11 19 17 18
5 -1 10 6 10 17 0 12 13 23 40 34 54 21 95 50 95 68 0 8 8 14 17 14 9 0 13 3
10 7 -12 12 15 34 28 23 9 -7 11 1 10 33 -1 23 3 54 11 68 15 31 8 46 -29 53
-15 3 -39 9 -54 12 l-27 5 30 25 c16 14 23 22 15 18 -9 -5 -12 -3 -7 4 4 7 13
12 20 12 8 0 13 8 12 18 0 10 6 17 16 16 12 -1 16 6 16 25 -1 15 4 36 10 47 8
14 12 15 12 4 0 -11 2 -12 8 -3 4 7 6 29 4 49 -3 26 -11 38 -28 44 -13 5 -24
12 -24 15 0 4 5 3 12 -1 7 -4 8 -3 4 5 -8 13 -59 6 -64 -9 -5 -15 -73 -13 -69
2 1 7 -8 13 -20 14 -13 1 -27 2 -33 3 -5 0 -10 10 -10 22 0 11 5 17 10 14 11
-7 31 35 23 47 -2 4 1 17 7 28 14 25 21 53 25 99 2 26 -3 40 -22 59 -17 17
-27 21 -32 13 -8 -13 -71 -12 -71 1 0 4 8 8 18 8 14 0 15 2 2 9 -8 6 -17 8
-21 5 -13 -8 -21 16 -10 30 6 7 8 16 4 19 -5 6 8 10 27 9 3 0 5 15 6 34 0 33
-4 38 -37 35 -15 -2 -31 20 -33 44 -1 6 -11 14 -23 20 -13 5 -23 16 -23 24 0
8 -3 12 -6 8 -7 -6 -44 24 -44 36 0 4 4 6 9 2 17 -10 22 13 23 95 0 44 5 80 9
80 20 0 8 41 -15 50 -13 4 -26 20 -30 34 -5 20 -12 25 -39 24 -17 -1 -35 -5
-38 -11 -4 -5 -12 0 -18 11 -9 18 -16 20 -36 12 -15 -6 -27 -6 -30 0 -4 6 -17
10 -31 10 -15 0 -24 6 -24 16 0 14 -7 15 -40 10 l-40 -6 0 35 c0 41 -19 53
-55 37 -12 -6 -26 -8 -30 -4 -4 4 -50 7 -104 7 -84 1 -104 -3 -146 -24z"/>
</g>
</svg>
